<svg width="209" height="24" viewBox="0 0 209 24" fill="none" xmlns="http://www.w3.org/2000/svg">
<g clip-path="url(#clip0_375_2404)">
<path d="M1.53 23.3999L9.21 2.0999H15.27L22.95 23.3999H17.58L16.2 19.3799H8.25L6.87 23.3999H1.53ZM9.69 15.2099H14.79L12.24 7.7399L9.69 15.2099ZM38.8556 23.3999H34.1456L34.0556 20.9699C33.1556 23.0099 31.4456 23.7599 29.4056 23.7599C26.0456 23.7599 23.9456 21.5099 23.9456 17.7299V7.4999H29.1056V15.9599C29.1056 18.3899 29.5256 19.7399 31.2056 19.7399C32.8556 19.7399 33.6656 18.3899 33.6656 15.9599V7.4999H38.8556V23.3999ZM57.4005 2.0999V23.3999H52.3905L52.3005 21.1199C51.4305 22.7999 49.6905 23.7599 47.5605 23.7599C43.4205 23.7599 40.8405 20.5499 40.8405 15.4499C40.8405 10.3499 43.4205 7.1399 47.5605 7.1399C49.5705 7.1399 51.2805 8.0999 52.2405 9.7199V2.0999H57.4005ZM46.1505 15.4499C46.1505 18.1799 47.4405 19.9499 49.3005 19.9499C51.2505 19.9499 52.5105 18.1799 52.5105 15.4499C52.5105 12.6599 51.2505 10.8899 49.3005 10.8899C47.3805 10.8899 46.1505 12.6599 46.1505 15.4499ZM59.4405 7.4999H64.6005V23.3999H59.4405V7.4999ZM59.3505 5.5799V2.0999H64.6905V5.5799H59.3505ZM74.8931 23.7599C69.7931 23.7599 66.4331 20.4599 66.4331 15.4499C66.4331 10.4399 69.7931 7.1399 74.8931 7.1399C79.9931 7.1399 83.3531 10.4399 83.3531 15.4499C83.3531 20.4599 79.9931 23.7599 74.8931 23.7599ZM71.7431 15.4499C71.7431 18.2999 72.8831 19.9199 74.8931 19.9199C76.9031 19.9199 78.0431 18.2999 78.0431 15.4499C78.0431 12.5999 76.9031 10.9799 74.8931 10.9799C72.8831 10.9799 71.7431 12.5999 71.7431 15.4499ZM104.585 23.3999H101.495L101.255 20.4599C100.175 22.5899 97.7754 23.8799 94.8054 23.8799C88.8054 23.8799 84.6654 19.1399 84.6654 12.7799C84.6654 6.4199 88.7754 1.6199 95.1654 1.6199C100.085 1.6199 103.505 4.4699 104.525 9.2399L99.0954 9.4799C98.5854 7.1999 97.1754 5.9099 95.0454 5.9099C91.6554 5.9099 90.0354 8.7899 90.0354 12.7799C90.0354 16.7399 91.6554 19.5899 95.0454 19.5899C97.4454 19.5899 98.8554 18.1199 99.2454 15.8699H94.9854V12.1799H104.585V23.3999ZM121.719 23.3999H117.009L116.919 20.9699C116.019 23.0099 114.309 23.7599 112.269 23.7599C108.909 23.7599 106.809 21.5099 106.809 17.7299V7.4999H111.969V15.9599C111.969 18.3899 112.389 19.7399 114.069 19.7399C115.719 19.7399 116.529 18.3899 116.529 15.9599V7.4999H121.719V23.3999ZM124.278 7.4999H129.438V23.3999H124.278V7.4999ZM124.188 5.5799V2.0999H129.528V5.5799H124.188ZM147.831 2.0999V23.3999H142.821L142.731 21.1199C141.861 22.7999 140.121 23.7599 137.991 23.7599C133.851 23.7599 131.271 20.5499 131.271 15.4499C131.271 10.3499 133.851 7.1399 137.991 7.1399C140.001 7.1399 141.711 8.0999 142.671 9.7199V2.0999H147.831ZM136.581 15.4499C136.581 18.1799 137.871 19.9499 139.731 19.9499C141.681 19.9499 142.941 18.1799 142.941 15.4499C142.941 12.6599 141.681 10.8899 139.731 10.8899C137.811 10.8899 136.581 12.6599 136.581 15.4499ZM149.677 15.4499C149.677 10.4399 153.037 7.1399 158.137 7.1399C162.847 7.1399 166.297 10.4099 166.207 16.0199V16.7699H155.077C155.197 18.8099 156.337 20.0999 158.137 20.0999C159.307 20.0999 160.387 19.4099 160.807 18.3599L165.997 18.7199C165.007 21.8099 161.977 23.7599 158.137 23.7599C153.037 23.7599 149.677 20.4599 149.677 15.4499ZM155.107 13.8599H161.017C160.807 11.7299 159.607 10.7999 158.137 10.7999C156.427 10.7999 155.287 11.9699 155.107 13.8599Z" fill="#191919"/>
<path d="M203.728 24.0132H179.75C175.332 24.0131 171.75 20.4314 171.75 16.0132V4.9624H203.728V24.0132ZM177.131 11.2974V19.0396H178.899V16.3052L182.128 19.0396H184.708L180.041 15.1743L184.708 11.2974H182.128L178.899 14.0425V11.2974H177.131ZM185.363 12.8462H187.12V17.4907H185.363V19.0396H190.646V17.4907H188.889V12.8462H190.646V11.2974H185.363V12.8462ZM191.525 12.8462H194.062V19.0396H195.819V12.8462H198.345V11.2974H191.525V12.8462Z" fill="url(#paint0_linear_375_2404)"/>
<path d="M208.491 0.199951V17.2094H201.839V6.87725H178.555V0.199951H208.491Z" fill="#E129D2"/>
</g>
<defs>
<linearGradient id="paint0_linear_375_2404" x1="187.739" y1="4.96282" x2="187.739" y2="24.0129" gradientUnits="userSpaceOnUse">
<stop stop-color="#0E0E0E"/>
<stop offset="1" stop-color="#222222"/>
</linearGradient>
<clipPath id="clip0_375_2404">
<rect width="209" height="24" fill="white"/>
</clipPath>
</defs>
</svg>
