<svg width="233" height="24" viewBox="0 0 233 24" fill="none" xmlns="http://www.w3.org/2000/svg">
<g clip-path="url(#clip0_369_5848)">
<path d="M19.8076 23.6306L18.2622 19.5144H8.21338L6.66797 23.6306H0.134766L9.1582 1.37964H17.3467L26.3115 23.6306H19.8076ZM10.0005 14.7683H16.4751L13.3916 6.57983H13.084L10.0005 14.7683ZM39.6645 7.60522H45.6557V23.6306H40.8656L40.0233 20.7742C39.1078 22.7297 37.1742 23.9382 34.2006 23.9382C29.7182 23.9382 27.5795 21.9021 27.5795 18.3865V7.60522H33.6293V17.2146C33.6293 18.9871 34.7865 19.573 36.1928 19.573C37.8773 19.573 39.6205 18.8845 39.6645 15.9695V7.60522ZM59.8436 1.37964H65.9813V23.6306H61.1619L60.4515 21.3528C59.7337 22.6052 57.7342 23.9382 55.5369 23.9382C50.8055 23.9382 47.6268 20.906 47.6268 15.574C47.6268 10.2419 50.8055 7.19507 55.5369 7.19507C57.3753 7.19507 58.9061 7.99341 59.8436 9.04077V1.37964ZM57.1482 19.4119C59.1111 19.4119 60.4588 18.0203 60.4588 15.574C60.4588 13.1277 59.1111 11.7214 57.1482 11.7214C54.8338 11.7214 53.6766 13.1277 53.6766 15.574C53.6766 18.0203 54.8338 19.4119 57.1482 19.4119ZM68.9777 5.9353V0.793701H75.4377V5.9353H68.9777ZM69.1535 23.6306V7.60522H75.2619V23.6306H69.1535ZM86.8277 23.9382C81.0709 23.9382 77.0865 20.906 77.0865 15.6033C77.0865 10.3298 81.0416 7.29761 86.8277 7.29761C92.7164 7.29761 96.6129 10.3298 96.6129 15.6033C96.6129 20.906 92.6871 23.9382 86.8277 23.9382ZM86.7691 19.6316C89.2301 19.6316 90.6949 17.991 90.6949 15.6033C90.6949 13.2156 89.2301 11.575 86.7691 11.575C84.44 11.575 83.0338 13.2156 83.0338 15.6033C83.0338 17.991 84.44 19.6316 86.7691 19.6316ZM111.973 11.7947H123.647V23.6306H119.692L118.85 20.6643C117.29 22.7957 114.749 23.9236 110.581 23.9236C102.7 23.9236 97.4561 19.822 97.4561 12.4978C97.4561 5.15894 102.7 1.07202 110.581 1.07202C117.378 1.07202 122.183 4.0603 123.428 9.52417H117.144C116.177 7.07788 113.833 5.9939 110.581 5.9939C106.274 5.9939 103.564 7.94214 103.564 12.4978C103.564 17.0681 106.274 19.0164 110.581 19.0164C113.708 19.0164 115.994 18.0056 117.026 15.7498H111.973V11.7947ZM138.289 7.60522H144.281V23.6306H139.491L138.648 20.7742C137.733 22.7297 135.799 23.9382 132.826 23.9382C128.343 23.9382 126.204 21.9021 126.204 18.3865V7.60522H132.254V17.2146C132.254 18.9871 133.412 19.573 134.818 19.573C136.502 19.573 138.246 18.8845 138.289 15.9695V7.60522ZM147.262 5.9353V0.793701H153.722V5.9353H147.262ZM147.438 23.6306V7.60522H153.547V23.6306H147.438ZM167.735 1.37964H173.872V23.6306H169.053L168.342 21.3528C167.625 22.6052 165.625 23.9382 163.428 23.9382C158.696 23.9382 155.518 20.906 155.518 15.574C155.518 10.2419 158.696 7.19507 163.428 7.19507C165.266 7.19507 166.797 7.99341 167.735 9.04077V1.37964ZM165.039 19.4119C167.002 19.4119 168.35 18.0203 168.35 15.574C168.35 13.1277 167.002 11.7214 165.039 11.7214C162.725 11.7214 161.568 13.1277 161.568 15.574C161.568 18.0203 162.725 19.4119 165.039 19.4119ZM194.183 15.4421L194.125 16.5701H181.622C181.813 18.6575 183.373 19.6609 185.394 19.6609C186.976 19.6609 187.987 19.1335 188.47 17.9617H194.066C192.938 22.0486 189.686 23.9382 185.423 23.9382C179.388 23.9382 175.741 20.906 175.741 15.6326C175.741 10.3298 179.52 7.26831 185.233 7.26831C190.375 7.26831 194.154 9.6853 194.183 15.4421ZM185.262 11.1648C183.131 11.1648 181.915 11.8679 181.659 13.9333H188.419C188.368 12.0583 187.079 11.1648 185.262 11.1648Z" fill="#191919"/>
<path d="M228.157 23.7955H204.18C199.761 23.7954 196.18 20.2138 196.18 15.7955V4.74475H228.157V23.7955ZM201.561 11.0797V18.8219H203.329V16.0875L206.558 18.8219H209.138L204.471 14.9567L209.138 11.0797H206.558L203.329 13.8248V11.0797H201.561ZM209.793 12.6285H211.55V17.2731H209.793V18.8219H215.075V17.2731H213.318V12.6285H215.075V11.0797H209.793V12.6285ZM215.955 12.6285H218.492V18.8219H220.249V12.6285H222.774V11.0797H215.955V12.6285Z" fill="url(#paint0_linear_369_5848)"/>
<path d="M232.921 -0.0177002V16.9917H226.268V6.6596H202.984V-0.0177002H232.921Z" fill="#E129D2"/>
</g>
<defs>
<linearGradient id="paint0_linear_369_5848" x1="212.169" y1="4.74517" x2="212.169" y2="23.7952" gradientUnits="userSpaceOnUse">
<stop stop-color="#0E0E0E"/>
<stop offset="1" stop-color="#222222"/>
</linearGradient>
<clipPath id="clip0_369_5848">
<rect width="233" height="24" fill="white"/>
</clipPath>
</defs>
</svg>
