<svg width="1200" height="630" viewBox="0 0 1200 630" fill="none" xmlns="http://www.w3.org/2000/svg">
  <rect width="1200" height="630" fill="#FAFAF9"/>
  <rect x="40" y="40" width="1120" height="550" stroke="#E5E5E5" stroke-width="2" fill="none"/>

  <!-- AudioGuideKit logo (166×24 at scale 4 = 664×96), centered, content shifted up -->
  <g transform="translate(268, 207) scale(4)">
    <g clip-path="url(#clip0_og)">
      <path d="M116.168 14.8268C116.168 10.5728 118.584 7.85425 122.285 7.85425C125.205 7.85425 127.848 9.74214 128.074 14.5248L128.099 15.5065H118.459C118.66 18.1747 120.019 19.7354 122.285 19.7354C123.694 19.7354 124.978 18.9299 125.582 17.5454L127.898 17.7216C127.118 20.2388 124.852 21.7994 122.285 21.7994C118.584 21.7994 116.168 19.0809 116.168 14.8268ZM118.509 13.5934H125.733C125.356 10.8245 123.871 9.91834 122.285 9.91834C120.195 9.91834 118.861 11.2776 118.509 13.5934Z" fill="#191919"/>
      <path d="M113.737 3.62524V21.4972H111.773L111.698 19.6345C110.968 20.9686 109.357 21.7993 107.494 21.7993C104.02 21.7993 101.855 19.1059 101.855 14.8267C101.855 10.5475 104.02 7.85411 107.494 7.85411C109.281 7.85411 110.842 8.63444 111.572 9.86786V3.62524H113.737ZM104.121 14.8267C104.121 17.8473 105.606 19.7352 107.947 19.7352C110.288 19.7352 111.773 17.8473 111.773 14.8267C111.773 11.7557 110.288 9.81751 107.947 9.81751C105.606 9.81751 104.121 11.7557 104.121 14.8267Z" fill="#191919"/>
      <path d="M97.2476 8.15617H99.4124V21.4972H97.2476V8.15617ZM97.1973 6.06691V3.62524H99.4627V6.06691H97.1973Z" fill="#191919"/>
      <path d="M94.3387 21.4971H92.2746V19.3071C91.5698 21.0188 90.0343 21.7991 88.2974 21.7991C85.3271 21.7991 83.8672 19.5588 83.8672 16.7396V8.15601H86.032V16.1103C86.032 18.5771 86.8375 19.8861 88.7505 19.8861C90.7894 19.8861 92.1739 18.5771 92.1739 16.1103V8.15601H94.3387V21.4971Z" fill="#191919"/>
      <path d="M81.2483 21.4972H79.6373L79.4359 18.5772C78.6807 20.5406 76.4656 21.8999 74.0995 21.8999C68.9392 21.8999 65.9941 17.7466 65.9941 12.5863C65.9941 7.40093 68.9141 3.22241 74.0995 3.22241C77.9004 3.22241 80.3924 5.58856 81.1728 9.11262L78.8569 9.26365C78.278 6.87233 76.667 5.38719 74.0995 5.38719C70.0216 5.38719 68.3099 8.76021 68.3099 12.5863C68.3099 16.3873 70.0468 19.7351 74.0995 19.7351C77.1956 19.7351 78.9325 17.4948 79.1087 14.6001H74.0995V12.4353H81.2483V21.4972Z" fill="#191919"/>
      <path d="M58.1924 21.7994C54.0643 21.7994 51.3457 19.0557 51.3457 14.8268C51.3457 10.598 54.0643 7.85425 58.1924 7.85425C62.3206 7.85425 65.0392 10.598 65.0392 14.8268C65.0392 19.0557 62.3206 21.7994 58.1924 21.7994ZM55.2473 14.8268C55.2473 17.3944 56.3046 18.8795 58.1924 18.8795C60.0803 18.8795 61.1375 17.3944 61.1375 14.8268C61.1375 12.2593 60.0803 10.7742 58.1924 10.7742C56.3046 10.7742 55.2473 12.2593 55.2473 14.8268Z" fill="#191919"/>
      <path d="M46.2515 8.15617H50.0776V21.4972H46.2515V8.15617ZM46.2012 6.41932V3.62524H50.128V6.41932H46.2012Z" fill="#191919"/>
      <path d="M44.907 3.62524V21.4972H41.2571L41.1816 19.5842C40.4264 20.9686 38.9413 21.7993 37.1541 21.7993C33.6804 21.7993 31.5156 19.1059 31.5156 14.8267C31.5156 10.5475 33.6804 7.85411 37.1541 7.85411C38.8406 7.85411 40.3006 8.63444 41.0809 9.99372V3.62524H44.907ZM35.3921 14.8267C35.3921 17.2935 36.6003 18.9045 38.3624 18.9045C40.1747 18.9045 41.3075 17.2935 41.3075 14.8267C41.3075 12.2844 40.1496 10.6985 38.3624 10.6985C36.55 10.6985 35.3921 12.2844 35.3921 14.8267Z" fill="#191919"/>
      <path d="M30.1241 21.4971H26.6756L26.6001 19.4078C25.8701 21.1447 24.385 21.7991 22.6733 21.7991C19.8037 21.7991 18.1172 19.8357 18.1172 16.7396V8.15601H21.9433V15.481C21.9433 17.5954 22.3964 18.7785 23.9319 18.7785C25.4925 18.7785 26.3232 17.5954 26.3232 15.481V8.15601H30.1241V21.4971Z" fill="#191919"/>
      <path d="M0.25 21.4972L6.69399 3.62524H11.2249L17.6689 21.4972H13.6918L12.3828 17.7215H5.53608L4.22715 21.4972H0.25ZM6.61847 14.5246H11.3004L8.95945 7.65274L6.61847 14.5246Z" fill="#191919"/>
      <path d="M162.007 15.4897C162.007 18.8033 159.32 21.4897 156.007 21.4897H133.633V10.5854C133.633 7.2719 136.319 4.58545 139.633 4.58545H162.007V15.4897ZM138.408 10.2065V17.0757H139.977V14.6499L142.842 17.0757H145.132L140.99 13.646L145.132 10.2065H142.842L139.977 12.6421V10.2065H138.408ZM145.715 11.5806H147.273V15.7017H145.715V17.0757H150.401V15.7017H148.843V11.5806H150.401V10.2065H145.715V11.5806ZM151.18 11.5806H153.431V17.0757H154.989V11.5806H157.23V10.2065H151.18V11.5806Z" fill="url(#paint0_linear_og)"/>
      <path d="M165.286 1.2854V11.6488H161.233V5.35372H147.047V1.2854H165.286Z" fill="#E129D2"/>
    </g>
    <defs>
      <linearGradient id="paint0_linear_og" x1="147.82" y1="4.58582" x2="147.82" y2="21.4895" gradientUnits="userSpaceOnUse">
        <stop stop-color="#0E0E0E"/>
        <stop offset="1" stop-color="#222222"/>
      </linearGradient>
      <clipPath id="clip0_og">
        <rect width="166" height="24" fill="white"/>
      </clipPath>
    </defs>
  </g>

  <!-- Tagline -->
  <text x="600" y="370" font-family="system-ui, sans-serif" font-size="28" fill="#666666" text-anchor="middle">Open-source audio guide player for museums and cultural institutions</text>
  <text x="600" y="440" font-family="monospace" font-size="18" fill="#888888" text-anchor="middle">FREE • OFFLINE • SELF-HOSTED • MIT LICENSE</text>
  <text x="600" y="500" font-family="monospace" font-size="16" fill="#AAAAAA" text-anchor="middle">audioguidekit.org</text>
</svg>
